M48
; DRILL file {KiCad (5.1.6)-1} date 08/10/20 12:53:13
; FORMAT={-:-/ absolute / metric / decimal}
; #@! TF.CreationDate,2020-08-10T12:53:13+09:00
; #@! TF.GenerationSoftware,Kicad,Pcbnew,(5.1.6)-1
FMAT,2
METRIC
T1C0.400
T2C1.000
T3C1.700
T4C3.200
%
G90
G05
T1
X145.977Y-105.207
X146.831Y-107.239
T2
X110.0Y-87.93
X110.0Y-90.47
X110.0Y-93.01
X110.0Y-95.55
X110.0Y-98.09
X110.0Y-100.63
X110.0Y-103.17
X110.0Y-105.71
X131.2Y-87.93
X131.2Y-90.47
X131.2Y-93.01
X131.2Y-95.55
X131.2Y-98.09
X131.2Y-100.63
X131.2Y-103.17
X131.2Y-105.71
X141.8Y-87.93
X141.8Y-90.47
X141.8Y-93.01
X141.8Y-95.55
X141.8Y-98.09
X141.8Y-100.63
X141.8Y-103.17
X141.8Y-105.71
X139.26Y-67.0
X139.26Y-69.54
X139.26Y-72.08
X139.26Y-74.62
X139.26Y-77.16
X139.26Y-79.7
X139.26Y-82.24
X141.8Y-67.0
X141.8Y-69.54
X141.8Y-72.08
X141.8Y-74.62
X141.8Y-77.16
X141.8Y-79.7
X141.8Y-82.24
X153.721Y-88.29
X153.721Y-90.83
X153.721Y-93.37
X153.721Y-95.91
X153.721Y-98.45
X153.721Y-100.99
X153.721Y-103.53
X153.721Y-106.07
X153.721Y-108.61
X153.721Y-111.15
X156.261Y-88.29
X156.261Y-90.83
X156.261Y-93.37
X156.261Y-95.91
X156.261Y-98.45
X156.261Y-100.99
X156.261Y-103.53
X156.261Y-106.07
X156.261Y-108.61
X156.261Y-111.15
X128.66Y-67.0
X128.66Y-69.54
X128.66Y-72.08
X128.66Y-74.62
X128.66Y-77.16
X128.66Y-79.7
X128.66Y-82.24
X131.2Y-67.0
X131.2Y-69.54
X131.2Y-72.08
X131.2Y-74.62
X131.2Y-77.16
X131.2Y-79.7
X131.2Y-82.24
X107.46Y-67.0
X107.46Y-69.54
X107.46Y-72.08
X107.46Y-74.62
X107.46Y-77.16
X107.46Y-79.7
X107.46Y-82.24
X110.0Y-67.0
X110.0Y-69.54
X110.0Y-72.08
X110.0Y-74.62
X110.0Y-77.16
X110.0Y-79.7
X110.0Y-82.24
X112.76Y-67.0
X112.76Y-69.54
X112.76Y-72.08
X112.76Y-74.62
X112.76Y-77.16
X112.76Y-79.7
X112.76Y-82.24
X115.3Y-67.0
X115.3Y-69.54
X115.3Y-72.08
X115.3Y-74.62
X115.3Y-77.16
X115.3Y-79.7
X115.3Y-82.24
X120.6Y-87.93
X120.6Y-90.47
X120.6Y-93.01
X120.6Y-95.55
X120.6Y-98.09
X120.6Y-100.63
X120.6Y-103.17
X120.6Y-105.71
X144.56Y-67.0
X144.56Y-69.54
X144.56Y-72.08
X144.56Y-74.62
X144.56Y-77.16
X144.56Y-79.7
X144.56Y-82.24
X147.1Y-67.0
X147.1Y-69.54
X147.1Y-72.08
X147.1Y-74.62
X147.1Y-77.16
X147.1Y-79.7
X147.1Y-82.24
X123.36Y-67.0
X123.36Y-69.54
X123.36Y-72.08
X123.36Y-74.62
X123.36Y-77.16
X123.36Y-79.7
X123.36Y-82.24
X125.9Y-67.0
X125.9Y-69.54
X125.9Y-72.08
X125.9Y-74.62
X125.9Y-77.16
X125.9Y-79.7
X125.9Y-82.24
X133.96Y-67.0
X133.96Y-69.54
X133.96Y-72.08
X133.96Y-74.62
X133.96Y-77.16
X133.96Y-79.7
X133.96Y-82.24
X136.5Y-67.0
X136.5Y-69.54
X136.5Y-72.08
X136.5Y-74.62
X136.5Y-77.16
X136.5Y-79.7
X136.5Y-82.24
X118.06Y-67.0
X118.06Y-69.54
X118.06Y-72.08
X118.06Y-74.62
X118.06Y-77.16
X118.06Y-79.7
X118.06Y-82.24
X120.6Y-67.0
X120.6Y-69.54
X120.6Y-72.08
X120.6Y-74.62
X120.6Y-77.16
X120.6Y-79.7
X120.6Y-82.24
T3
X154.485Y-73.863
X158.445Y-73.863
T4
X161.0Y-61.0
X161.0Y-113.0
X105.0Y-113.0
X105.0Y-61.0
T0
M30
