%TF.GenerationSoftware,KiCad,Pcbnew,(5.1.6)-1*%
%TF.CreationDate,2020-08-10T13:34:50+09:00*%
%TF.ProjectId,BLDC__MD_Mounter,424c4443-5f5f-44d4-945f-4d6f756e7465,rev?*%
%TF.SameCoordinates,Original*%
%TF.FileFunction,Copper,L1,Top*%
%TF.FilePolarity,Positive*%
%FSLAX46Y46*%
G04 Gerber Fmt 4.6, Leading zero omitted, Abs format (unit mm)*
G04 Created by KiCad (PCBNEW (5.1.6)-1) date 2020-08-10 13:34:50*
%MOMM*%
%LPD*%
G01*
G04 APERTURE LIST*
%TA.AperFunction,NonConductor*%
%ADD10C,0.300000*%
%TD*%
%TA.AperFunction,ComponentPad*%
%ADD11O,1.700000X1.700000*%
%TD*%
%TA.AperFunction,ComponentPad*%
%ADD12R,1.700000X1.700000*%
%TD*%
%TA.AperFunction,ComponentPad*%
%ADD13C,2.700000*%
%TD*%
%TA.AperFunction,ViaPad*%
%ADD14C,0.800000*%
%TD*%
%TA.AperFunction,Conductor*%
%ADD15C,0.406400*%
%TD*%
%TA.AperFunction,Conductor*%
%ADD16C,0.508000*%
%TD*%
%TA.AperFunction,Conductor*%
%ADD17C,1.270000*%
%TD*%
G04 APERTURE END LIST*
D10*
X142000000Y-62678571D02*
X142928571Y-62678571D01*
X142428571Y-63250000D01*
X142642857Y-63250000D01*
X142785714Y-63321428D01*
X142857142Y-63392857D01*
X142928571Y-63535714D01*
X142928571Y-63892857D01*
X142857142Y-64035714D01*
X142785714Y-64107142D01*
X142642857Y-64178571D01*
X142214285Y-64178571D01*
X142071428Y-64107142D01*
X142000000Y-64035714D01*
X131571428Y-62821428D02*
X131642857Y-62750000D01*
X131785714Y-62678571D01*
X132142857Y-62678571D01*
X132285714Y-62750000D01*
X132357142Y-62821428D01*
X132428571Y-62964285D01*
X132428571Y-63107142D01*
X132357142Y-63321428D01*
X131500000Y-64178571D01*
X132428571Y-64178571D01*
X121678571Y-64178571D02*
X120821428Y-64178571D01*
X121250000Y-64178571D02*
X121250000Y-62678571D01*
X121107142Y-62892857D01*
X120964285Y-63035714D01*
X120821428Y-63107142D01*
X110678571Y-62678571D02*
X110821428Y-62678571D01*
X110964285Y-62750000D01*
X111035714Y-62821428D01*
X111107142Y-62964285D01*
X111178571Y-63250000D01*
X111178571Y-63607142D01*
X111107142Y-63892857D01*
X111035714Y-64035714D01*
X110964285Y-64107142D01*
X110821428Y-64178571D01*
X110678571Y-64178571D01*
X110535714Y-64107142D01*
X110464285Y-64035714D01*
X110392857Y-63892857D01*
X110321428Y-63607142D01*
X110321428Y-63250000D01*
X110392857Y-62964285D01*
X110464285Y-62821428D01*
X110535714Y-62750000D01*
X110678571Y-62678571D01*
D11*
%TO.P,J4,8*%
%TO.N,GND*%
X110000000Y-105709600D03*
%TO.P,J4,7*%
%TO.N,VCC*%
X110000000Y-103169600D03*
%TO.P,J4,6*%
%TO.N,+5V*%
X110000000Y-100629600D03*
%TO.P,J4,5*%
%TO.N,+3V3*%
X110000000Y-98089600D03*
%TO.P,J4,4*%
%TO.N,/RD_1*%
X110000000Y-95549600D03*
%TO.P,J4,3*%
%TO.N,/PWM_1*%
X110000000Y-93009600D03*
%TO.P,J4,2*%
%TO.N,/FR_1*%
X110000000Y-90469600D03*
D12*
%TO.P,J4,1*%
%TO.N,/FG_1*%
X110000000Y-87929600D03*
%TD*%
D11*
%TO.P,J11,8*%
%TO.N,GND*%
X131200000Y-105709600D03*
%TO.P,J11,7*%
%TO.N,VCC*%
X131200000Y-103169600D03*
%TO.P,J11,6*%
%TO.N,+5V*%
X131200000Y-100629600D03*
%TO.P,J11,5*%
%TO.N,+3V3*%
X131200000Y-98089600D03*
%TO.P,J11,4*%
%TO.N,/RD_3*%
X131200000Y-95549600D03*
%TO.P,J11,3*%
%TO.N,/PWM_3*%
X131200000Y-93009600D03*
%TO.P,J11,2*%
%TO.N,/FR_3*%
X131200000Y-90469600D03*
D12*
%TO.P,J11,1*%
%TO.N,/FG_3*%
X131200000Y-87929600D03*
%TD*%
D11*
%TO.P,J14,8*%
%TO.N,GND*%
X141800000Y-105709600D03*
%TO.P,J14,7*%
%TO.N,VCC*%
X141800000Y-103169600D03*
%TO.P,J14,6*%
%TO.N,+5V*%
X141800000Y-100629600D03*
%TO.P,J14,5*%
%TO.N,+3V3*%
X141800000Y-98089600D03*
%TO.P,J14,4*%
%TO.N,/RD_4*%
X141800000Y-95549600D03*
%TO.P,J14,3*%
%TO.N,/PWM_4*%
X141800000Y-93009600D03*
%TO.P,J14,2*%
%TO.N,/FR_4*%
X141800000Y-90469600D03*
D12*
%TO.P,J14,1*%
%TO.N,/FG_4*%
X141800000Y-87929600D03*
%TD*%
D11*
%TO.P,J13,14*%
%TO.N,/HALL_C_N_4*%
X139260000Y-82240000D03*
%TO.P,J13,13*%
%TO.N,/HALL_C_P_4*%
X141800000Y-82240000D03*
%TO.P,J13,12*%
%TO.N,Net-(J13-Pad12)*%
X139260000Y-79700000D03*
%TO.P,J13,11*%
%TO.N,/HALL_B_P_4*%
X141800000Y-79700000D03*
%TO.P,J13,10*%
%TO.N,/COIL_B_4*%
X139260000Y-77160000D03*
%TO.P,J13,9*%
%TO.N,+5V*%
X141800000Y-77160000D03*
%TO.P,J13,8*%
%TO.N,/COIL_C_4*%
X139260000Y-74620000D03*
%TO.P,J13,7*%
%TO.N,GND*%
X141800000Y-74620000D03*
%TO.P,J13,6*%
%TO.N,/COIL_A_4*%
X139260000Y-72080000D03*
%TO.P,J13,5*%
%TO.N,/HALL_B_N_4*%
X141800000Y-72080000D03*
%TO.P,J13,4*%
%TO.N,/HALL_A_P_4*%
X139260000Y-69540000D03*
%TO.P,J13,3*%
%TO.N,/HALL_A_N_4*%
X141800000Y-69540000D03*
%TO.P,J13,2*%
%TO.N,Net-(J13-Pad2)*%
X139260000Y-67000000D03*
D12*
%TO.P,J13,1*%
%TO.N,Net-(J13-Pad1)*%
X141800000Y-67000000D03*
%TD*%
D11*
%TO.P,J12,14*%
%TO.N,/HALL_C_P_4*%
X144560000Y-82240000D03*
%TO.P,J12,13*%
%TO.N,/HALL_C_N_4*%
X147100000Y-82240000D03*
%TO.P,J12,12*%
%TO.N,/HALL_B_P_4*%
X144560000Y-79700000D03*
%TO.P,J12,11*%
%TO.N,Net-(J12-Pad11)*%
X147100000Y-79700000D03*
%TO.P,J12,10*%
%TO.N,+5V*%
X144560000Y-77160000D03*
%TO.P,J12,9*%
%TO.N,/COIL_B_4*%
X147100000Y-77160000D03*
%TO.P,J12,8*%
%TO.N,GND*%
X144560000Y-74620000D03*
%TO.P,J12,7*%
%TO.N,/COIL_C_4*%
X147100000Y-74620000D03*
%TO.P,J12,6*%
%TO.N,/HALL_B_N_4*%
X144560000Y-72080000D03*
%TO.P,J12,5*%
%TO.N,/COIL_A_4*%
X147100000Y-72080000D03*
%TO.P,J12,4*%
%TO.N,/HALL_A_N_4*%
X144560000Y-69540000D03*
%TO.P,J12,3*%
%TO.N,/HALL_A_P_4*%
X147100000Y-69540000D03*
%TO.P,J12,2*%
%TO.N,Net-(J12-Pad2)*%
X144560000Y-67000000D03*
D12*
%TO.P,J12,1*%
%TO.N,Net-(J12-Pad1)*%
X147100000Y-67000000D03*
%TD*%
D11*
%TO.P,J10,14*%
%TO.N,/HALL_C_N_3*%
X128660000Y-82240000D03*
%TO.P,J10,13*%
%TO.N,/HALL_C_P_3*%
X131200000Y-82240000D03*
%TO.P,J10,12*%
%TO.N,Net-(J10-Pad12)*%
X128660000Y-79700000D03*
%TO.P,J10,11*%
%TO.N,/HALL_B_P_3*%
X131200000Y-79700000D03*
%TO.P,J10,10*%
%TO.N,/COIL_B_3*%
X128660000Y-77160000D03*
%TO.P,J10,9*%
%TO.N,+5V*%
X131200000Y-77160000D03*
%TO.P,J10,8*%
%TO.N,/COIL_C_3*%
X128660000Y-74620000D03*
%TO.P,J10,7*%
%TO.N,GND*%
X131200000Y-74620000D03*
%TO.P,J10,6*%
%TO.N,/COIL_A_3*%
X128660000Y-72080000D03*
%TO.P,J10,5*%
%TO.N,/HALL_B_N_3*%
X131200000Y-72080000D03*
%TO.P,J10,4*%
%TO.N,/HALL_A_P_3*%
X128660000Y-69540000D03*
%TO.P,J10,3*%
%TO.N,/HALL_A_N_3*%
X131200000Y-69540000D03*
%TO.P,J10,2*%
%TO.N,Net-(J10-Pad2)*%
X128660000Y-67000000D03*
D12*
%TO.P,J10,1*%
%TO.N,Net-(J10-Pad1)*%
X131200000Y-67000000D03*
%TD*%
D11*
%TO.P,J9,14*%
%TO.N,/HALL_C_P_3*%
X133960000Y-82240000D03*
%TO.P,J9,13*%
%TO.N,/HALL_C_N_3*%
X136500000Y-82240000D03*
%TO.P,J9,12*%
%TO.N,/HALL_B_P_3*%
X133960000Y-79700000D03*
%TO.P,J9,11*%
%TO.N,Net-(J9-Pad11)*%
X136500000Y-79700000D03*
%TO.P,J9,10*%
%TO.N,+5V*%
X133960000Y-77160000D03*
%TO.P,J9,9*%
%TO.N,/COIL_B_3*%
X136500000Y-77160000D03*
%TO.P,J9,8*%
%TO.N,GND*%
X133960000Y-74620000D03*
%TO.P,J9,7*%
%TO.N,/COIL_C_3*%
X136500000Y-74620000D03*
%TO.P,J9,6*%
%TO.N,/HALL_B_N_3*%
X133960000Y-72080000D03*
%TO.P,J9,5*%
%TO.N,/COIL_A_3*%
X136500000Y-72080000D03*
%TO.P,J9,4*%
%TO.N,/HALL_A_N_3*%
X133960000Y-69540000D03*
%TO.P,J9,3*%
%TO.N,/HALL_A_P_3*%
X136500000Y-69540000D03*
%TO.P,J9,2*%
%TO.N,Net-(J9-Pad2)*%
X133960000Y-67000000D03*
D12*
%TO.P,J9,1*%
%TO.N,Net-(J9-Pad1)*%
X136500000Y-67000000D03*
%TD*%
D11*
%TO.P,J8,8*%
%TO.N,GND*%
X120600000Y-105709600D03*
%TO.P,J8,7*%
%TO.N,VCC*%
X120600000Y-103169600D03*
%TO.P,J8,6*%
%TO.N,+5V*%
X120600000Y-100629600D03*
%TO.P,J8,5*%
%TO.N,+3V3*%
X120600000Y-98089600D03*
%TO.P,J8,4*%
%TO.N,/RD_2*%
X120600000Y-95549600D03*
%TO.P,J8,3*%
%TO.N,/PWM_2*%
X120600000Y-93009600D03*
%TO.P,J8,2*%
%TO.N,/FR_2*%
X120600000Y-90469600D03*
D12*
%TO.P,J8,1*%
%TO.N,/FG_2*%
X120600000Y-87929600D03*
%TD*%
D11*
%TO.P,J7,14*%
%TO.N,/HALL_C_N_2*%
X118060000Y-82240000D03*
%TO.P,J7,13*%
%TO.N,/HALL_C_P_2*%
X120600000Y-82240000D03*
%TO.P,J7,12*%
%TO.N,Net-(J7-Pad12)*%
X118060000Y-79700000D03*
%TO.P,J7,11*%
%TO.N,/HALL_B_P_2*%
X120600000Y-79700000D03*
%TO.P,J7,10*%
%TO.N,/COIL_B_2*%
X118060000Y-77160000D03*
%TO.P,J7,9*%
%TO.N,+5V*%
X120600000Y-77160000D03*
%TO.P,J7,8*%
%TO.N,/COIL_C_2*%
X118060000Y-74620000D03*
%TO.P,J7,7*%
%TO.N,GND*%
X120600000Y-74620000D03*
%TO.P,J7,6*%
%TO.N,/COIL_A_2*%
X118060000Y-72080000D03*
%TO.P,J7,5*%
%TO.N,/HALL_B_N_2*%
X120600000Y-72080000D03*
%TO.P,J7,4*%
%TO.N,/HALL_A_P_2*%
X118060000Y-69540000D03*
%TO.P,J7,3*%
%TO.N,/HALL_A_N_2*%
X120600000Y-69540000D03*
%TO.P,J7,2*%
%TO.N,Net-(J7-Pad2)*%
X118060000Y-67000000D03*
D12*
%TO.P,J7,1*%
%TO.N,Net-(J7-Pad1)*%
X120600000Y-67000000D03*
%TD*%
D11*
%TO.P,J6,14*%
%TO.N,/HALL_C_P_2*%
X123360000Y-82240000D03*
%TO.P,J6,13*%
%TO.N,/HALL_C_N_2*%
X125900000Y-82240000D03*
%TO.P,J6,12*%
%TO.N,/HALL_B_P_2*%
X123360000Y-79700000D03*
%TO.P,J6,11*%
%TO.N,Net-(J6-Pad11)*%
X125900000Y-79700000D03*
%TO.P,J6,10*%
%TO.N,+5V*%
X123360000Y-77160000D03*
%TO.P,J6,9*%
%TO.N,/COIL_B_2*%
X125900000Y-77160000D03*
%TO.P,J6,8*%
%TO.N,GND*%
X123360000Y-74620000D03*
%TO.P,J6,7*%
%TO.N,/COIL_C_2*%
X125900000Y-74620000D03*
%TO.P,J6,6*%
%TO.N,/HALL_B_N_2*%
X123360000Y-72080000D03*
%TO.P,J6,5*%
%TO.N,/COIL_A_2*%
X125900000Y-72080000D03*
%TO.P,J6,4*%
%TO.N,/HALL_A_N_2*%
X123360000Y-69540000D03*
%TO.P,J6,3*%
%TO.N,/HALL_A_P_2*%
X125900000Y-69540000D03*
%TO.P,J6,2*%
%TO.N,Net-(J6-Pad2)*%
X123360000Y-67000000D03*
D12*
%TO.P,J6,1*%
%TO.N,Net-(J6-Pad1)*%
X125900000Y-67000000D03*
%TD*%
D13*
%TO.P,J5,2*%
%TO.N,GND*%
X154485200Y-73863200D03*
%TO.P,J5,1*%
%TO.N,VCC*%
%TA.AperFunction,ComponentPad*%
G36*
G01*
X159795200Y-72763201D02*
X159795200Y-74963199D01*
G75*
G02*
X159545199Y-75213200I-250001J0D01*
G01*
X157345201Y-75213200D01*
G75*
G02*
X157095200Y-74963199I0J250001D01*
G01*
X157095200Y-72763201D01*
G75*
G02*
X157345201Y-72513200I250001J0D01*
G01*
X159545199Y-72513200D01*
G75*
G02*
X159795200Y-72763201I0J-250001D01*
G01*
G37*
%TD.AperFunction*%
%TD*%
D11*
%TO.P,J3,20*%
%TO.N,/RD_4*%
X156260800Y-88290400D03*
%TO.P,J3,19*%
%TO.N,/FG_2*%
X153720800Y-88290400D03*
%TO.P,J3,18*%
%TO.N,/PWM_4*%
X156260800Y-90830400D03*
%TO.P,J3,17*%
%TO.N,/FR_2*%
X153720800Y-90830400D03*
%TO.P,J3,16*%
%TO.N,/FR_4*%
X156260800Y-93370400D03*
%TO.P,J3,15*%
%TO.N,/PWM_2*%
X153720800Y-93370400D03*
%TO.P,J3,14*%
%TO.N,/FG_4*%
X156260800Y-95910400D03*
%TO.P,J3,13*%
%TO.N,/RD_2*%
X153720800Y-95910400D03*
%TO.P,J3,12*%
%TO.N,/RD_3*%
X156260800Y-98450400D03*
%TO.P,J3,11*%
%TO.N,/FG_1*%
X153720800Y-98450400D03*
%TO.P,J3,10*%
%TO.N,/PWM_3*%
X156260800Y-100990400D03*
%TO.P,J3,9*%
%TO.N,/FR_1*%
X153720800Y-100990400D03*
%TO.P,J3,8*%
%TO.N,/FR_3*%
X156260800Y-103530400D03*
%TO.P,J3,7*%
%TO.N,/PWM_1*%
X153720800Y-103530400D03*
%TO.P,J3,6*%
%TO.N,/FG_3*%
X156260800Y-106070400D03*
%TO.P,J3,5*%
%TO.N,/RD_1*%
X153720800Y-106070400D03*
%TO.P,J3,4*%
%TO.N,GND*%
X156260800Y-108610400D03*
%TO.P,J3,3*%
%TO.N,+5V*%
X153720800Y-108610400D03*
%TO.P,J3,2*%
%TO.N,Net-(J3-Pad2)*%
X156260800Y-111150400D03*
D12*
%TO.P,J3,1*%
%TO.N,+3V3*%
X153720800Y-111150400D03*
%TD*%
D11*
%TO.P,J2,14*%
%TO.N,/HALL_C_P_1*%
X112760000Y-82240000D03*
%TO.P,J2,13*%
%TO.N,/HALL_C_N_1*%
X115300000Y-82240000D03*
%TO.P,J2,12*%
%TO.N,/HALL_B_P_1*%
X112760000Y-79700000D03*
%TO.P,J2,11*%
%TO.N,Net-(J2-Pad11)*%
X115300000Y-79700000D03*
%TO.P,J2,10*%
%TO.N,+5V*%
X112760000Y-77160000D03*
%TO.P,J2,9*%
%TO.N,/COIL_B_1*%
X115300000Y-77160000D03*
%TO.P,J2,8*%
%TO.N,GND*%
X112760000Y-74620000D03*
%TO.P,J2,7*%
%TO.N,/COIL_C_1*%
X115300000Y-74620000D03*
%TO.P,J2,6*%
%TO.N,/HALL_B_N_1*%
X112760000Y-72080000D03*
%TO.P,J2,5*%
%TO.N,/COIL_A_1*%
X115300000Y-72080000D03*
%TO.P,J2,4*%
%TO.N,/HALL_A_N_1*%
X112760000Y-69540000D03*
%TO.P,J2,3*%
%TO.N,/HALL_A_P_1*%
X115300000Y-69540000D03*
%TO.P,J2,2*%
%TO.N,Net-(J2-Pad2)*%
X112760000Y-67000000D03*
D12*
%TO.P,J2,1*%
%TO.N,Net-(J2-Pad1)*%
X115300000Y-67000000D03*
%TD*%
D11*
%TO.P,J1,14*%
%TO.N,/HALL_C_N_1*%
X107460000Y-82240000D03*
%TO.P,J1,13*%
%TO.N,/HALL_C_P_1*%
X110000000Y-82240000D03*
%TO.P,J1,12*%
%TO.N,Net-(J1-Pad12)*%
X107460000Y-79700000D03*
%TO.P,J1,11*%
%TO.N,/HALL_B_P_1*%
X110000000Y-79700000D03*
%TO.P,J1,10*%
%TO.N,/COIL_B_1*%
X107460000Y-77160000D03*
%TO.P,J1,9*%
%TO.N,+5V*%
X110000000Y-77160000D03*
%TO.P,J1,8*%
%TO.N,/COIL_C_1*%
X107460000Y-74620000D03*
%TO.P,J1,7*%
%TO.N,GND*%
X110000000Y-74620000D03*
%TO.P,J1,6*%
%TO.N,/COIL_A_1*%
X107460000Y-72080000D03*
%TO.P,J1,5*%
%TO.N,/HALL_B_N_1*%
X110000000Y-72080000D03*
%TO.P,J1,4*%
%TO.N,/HALL_A_P_1*%
X107460000Y-69540000D03*
%TO.P,J1,3*%
%TO.N,/HALL_A_N_1*%
X110000000Y-69540000D03*
%TO.P,J1,2*%
%TO.N,Net-(J1-Pad2)*%
X107460000Y-67000000D03*
D12*
%TO.P,J1,1*%
%TO.N,Net-(J1-Pad1)*%
X110000000Y-67000000D03*
%TD*%
D14*
%TO.N,+5V*%
X145977170Y-105206800D03*
%TO.N,+3V3*%
X146831170Y-107238800D03*
%TD*%
D15*
%TO.N,/HALL_C_N_1*%
X107460000Y-82240000D02*
X108713201Y-80986799D01*
X114046799Y-80986799D02*
X115300000Y-82240000D01*
X108713201Y-80986799D02*
X114046799Y-80986799D01*
%TO.N,/HALL_C_P_1*%
X110000000Y-82240000D02*
X112760000Y-82240000D01*
%TO.N,/HALL_B_P_1*%
X110000000Y-79700000D02*
X112760000Y-79700000D01*
%TO.N,/COIL_B_1*%
X107460000Y-77160000D02*
X108713201Y-75906799D01*
X114046799Y-75906799D02*
X115300000Y-77160000D01*
X108713201Y-75906799D02*
X114046799Y-75906799D01*
%TO.N,+5V*%
X110000000Y-77160000D02*
X112760000Y-77160000D01*
X120600000Y-77160000D02*
X123360000Y-77160000D01*
X131200000Y-77160000D02*
X133960000Y-77160000D01*
X141800000Y-77160000D02*
X144560000Y-77160000D01*
X114046799Y-78446799D02*
X114013201Y-78413201D01*
X114013201Y-78413201D02*
X112760000Y-77160000D01*
X120600000Y-77160000D02*
X119313201Y-78446799D01*
X129946799Y-78413201D02*
X131200000Y-77160000D01*
X124613201Y-78413201D02*
X129946799Y-78413201D01*
X123360000Y-77160000D02*
X124613201Y-78413201D01*
X140513201Y-78446799D02*
X141800000Y-77160000D01*
X135246799Y-78446799D02*
X140513201Y-78446799D01*
X133960000Y-77160000D02*
X135246799Y-78446799D01*
X117003999Y-78446799D02*
X116806799Y-78643999D01*
X117003999Y-78446799D02*
X114046799Y-78446799D01*
X119313201Y-78446799D02*
X117003999Y-78446799D01*
X131200000Y-100629600D02*
X141800000Y-100629600D01*
X116806799Y-96836399D02*
X116806799Y-95826399D01*
X120600000Y-100629600D02*
X116806799Y-96836399D01*
X116806799Y-78643999D02*
X116806799Y-95826399D01*
D16*
X141800000Y-100629600D02*
X145977170Y-104806770D01*
X145977170Y-104806770D02*
X145977170Y-105206800D01*
D15*
%TO.N,/COIL_C_1*%
X107460000Y-74620000D02*
X108713201Y-73366799D01*
X114046799Y-73366799D02*
X115300000Y-74620000D01*
X108713201Y-73366799D02*
X114046799Y-73366799D01*
D17*
%TO.N,GND*%
X131200000Y-105663402D02*
X131200000Y-105709600D01*
D15*
%TO.N,/COIL_A_1*%
X107460000Y-72080000D02*
X108713201Y-70826799D01*
X114046799Y-70826799D02*
X115300000Y-72080000D01*
X108713201Y-70826799D02*
X114046799Y-70826799D01*
%TO.N,/HALL_B_N_1*%
X110000000Y-72080000D02*
X112760000Y-72080000D01*
%TO.N,/HALL_A_P_1*%
X114046799Y-68286799D02*
X115300000Y-69540000D01*
X107460000Y-69540000D02*
X108713201Y-68286799D01*
X108713201Y-68286799D02*
X114046799Y-68286799D01*
%TO.N,/HALL_A_N_1*%
X110000000Y-69540000D02*
X112760000Y-69540000D01*
%TO.N,/RD_3*%
X159333231Y-86935314D02*
X159333231Y-95377969D01*
X133666021Y-93083579D02*
X133666021Y-89752379D01*
X131200000Y-95549600D02*
X133666021Y-93083579D01*
X133666021Y-89752379D02*
X137972800Y-85445600D01*
X157009476Y-84611559D02*
X159333231Y-86935314D01*
X137972800Y-85445600D02*
X151231600Y-85445600D01*
X159333231Y-95377969D02*
X156260800Y-98450400D01*
X152065641Y-84611559D02*
X157009476Y-84611559D01*
X151231600Y-85445600D02*
X152065641Y-84611559D01*
%TO.N,/FG_2*%
X123672431Y-107619631D02*
X123672431Y-107822831D01*
X123672431Y-107619631D02*
X123672431Y-109753231D01*
X125171200Y-111252000D02*
X125374400Y-111455200D01*
X123672431Y-109753231D02*
X125171200Y-111252000D01*
X125374401Y-111455201D02*
X125171200Y-111252000D01*
X147634370Y-109210430D02*
X145389598Y-111455201D01*
X153720800Y-88290400D02*
X147634370Y-94376830D01*
X145389598Y-111455201D02*
X125374401Y-111455201D01*
X147634370Y-94376830D02*
X147634370Y-109210430D01*
X123672431Y-105638431D02*
X123672431Y-107619631D01*
X120600000Y-87929600D02*
X123672431Y-91002031D01*
X123672431Y-91002031D02*
X123672431Y-105638431D01*
%TO.N,/PWM_3*%
X159939640Y-86684132D02*
X159939640Y-97311560D01*
X157260659Y-84005151D02*
X159939640Y-86684132D01*
X151808451Y-84005150D02*
X157260659Y-84005151D01*
X133059611Y-91149989D02*
X133059611Y-89501197D01*
X151028401Y-84785200D02*
X151808451Y-84005150D01*
X131200000Y-93009600D02*
X133059611Y-91149989D01*
X159939640Y-97311560D02*
X156260800Y-100990400D01*
X133059611Y-89501197D02*
X137775608Y-84785200D01*
X137775608Y-84785200D02*
X151028401Y-84785200D01*
%TO.N,/FR_2*%
X120600000Y-90469600D02*
X120600000Y-90475600D01*
X148240780Y-96310420D02*
X153720800Y-90830400D01*
X123066021Y-92935621D02*
X123066021Y-110004414D01*
X148240780Y-109497660D02*
X148240780Y-96310420D01*
X120600000Y-90469600D02*
X123066021Y-92935621D01*
X145676829Y-112061611D02*
X148240780Y-109497660D01*
X123066021Y-110004414D02*
X125123217Y-112061610D01*
X125123217Y-112061610D02*
X145676829Y-112061611D01*
%TO.N,/FR_3*%
X131200000Y-90469600D02*
X131200000Y-89645621D01*
X132419589Y-89250011D02*
X131200000Y-90469600D01*
X150831207Y-84124800D02*
X137578413Y-84124800D01*
X151557268Y-83398739D02*
X150831207Y-84124800D01*
X157511842Y-83398739D02*
X151557268Y-83398739D01*
X137578413Y-84124800D02*
X132453202Y-89250011D01*
X132453202Y-89250011D02*
X132419589Y-89250011D01*
X160546051Y-86432948D02*
X157511842Y-83398739D01*
X156260800Y-103530400D02*
X160546051Y-99245149D01*
X160546051Y-99245149D02*
X160546051Y-86432948D01*
%TO.N,/PWM_2*%
X148847190Y-103990417D02*
X148859950Y-103977657D01*
X148847190Y-109748842D02*
X148847190Y-103990417D01*
X122459611Y-94869211D02*
X122459612Y-110255599D01*
X120600000Y-93009600D02*
X122459611Y-94869211D01*
X122459612Y-110255599D02*
X124872034Y-112668020D01*
X148859950Y-98231250D02*
X153720800Y-93370400D01*
X148859950Y-103977657D02*
X148859950Y-98231250D01*
X124872034Y-112668020D02*
X145928013Y-112668019D01*
X145928013Y-112668019D02*
X148847190Y-109748842D01*
%TO.N,/FG_3*%
X151306085Y-82792329D02*
X150583214Y-83515200D01*
X161152461Y-86181765D02*
X157763027Y-82792330D01*
X156260800Y-106070400D02*
X161152461Y-101178739D01*
X150583214Y-83515200D02*
X135614400Y-83515200D01*
X161152461Y-101178739D02*
X161152461Y-86181765D01*
X157763027Y-82792330D02*
X151306085Y-82792329D01*
X135614400Y-83515200D02*
X131200000Y-87929600D01*
%TO.N,/RD_2*%
X149466360Y-100164840D02*
X153720800Y-95910400D01*
X149453600Y-104241600D02*
X149466360Y-104228840D01*
X149453600Y-110000024D02*
X149453600Y-104241600D01*
X149466360Y-104228840D02*
X149466360Y-100164840D01*
X146179197Y-113274427D02*
X149453600Y-110000024D01*
X121853201Y-96802801D02*
X121853201Y-107680001D01*
X120600000Y-95549600D02*
X121853201Y-96802801D01*
X124620852Y-113274429D02*
X146179197Y-113274427D01*
X121853201Y-107680001D02*
X121853203Y-107680003D01*
X121853203Y-107680003D02*
X121853203Y-110506782D01*
X121853203Y-110506782D02*
X124620852Y-113274429D01*
%TO.N,/RD_4*%
X144266021Y-88233563D02*
X144266021Y-93083579D01*
X156260800Y-88290400D02*
X155007599Y-87037199D01*
X155007599Y-87037199D02*
X153070372Y-87037199D01*
X153070372Y-87037199D02*
X152236332Y-87871240D01*
X152236332Y-87871240D02*
X144628344Y-87871240D01*
X144266021Y-93083579D02*
X141800000Y-95549600D01*
X144628344Y-87871240D02*
X144266021Y-88233563D01*
%TO.N,/FG_1*%
X150072770Y-102098430D02*
X153720800Y-98450400D01*
X150072770Y-110238446D02*
X150072770Y-102098430D01*
X110000000Y-87929600D02*
X113072431Y-91002031D01*
X146430381Y-113880835D02*
X150072770Y-110238446D01*
X113072431Y-91002031D02*
X113072431Y-112462831D01*
X113072431Y-112462831D02*
X114490438Y-113880838D01*
X114490438Y-113880838D02*
X146430381Y-113880835D01*
%TO.N,/PWM_4*%
X143659611Y-91149989D02*
X141800000Y-93009600D01*
X143659611Y-87982381D02*
X143659611Y-91149989D01*
X151985149Y-87264830D02*
X144377162Y-87264830D01*
X157514001Y-89577199D02*
X157514001Y-87688863D01*
X156260800Y-90830400D02*
X157514001Y-89577199D01*
X152819189Y-86430789D02*
X151985149Y-87264830D01*
X157514001Y-87688863D02*
X156255927Y-86430789D01*
X144377162Y-87264830D02*
X143659611Y-87982381D01*
X156255927Y-86430789D02*
X152819189Y-86430789D01*
%TO.N,/FR_1*%
X150679180Y-110489628D02*
X150679180Y-104032020D01*
X147254182Y-113914626D02*
X150679180Y-110489628D01*
X112466021Y-112714014D02*
X114239256Y-114487247D01*
X110000000Y-90469600D02*
X112466021Y-92935621D01*
X150679180Y-104032020D02*
X153720800Y-100990400D01*
X112466021Y-92935621D02*
X112466021Y-112714014D01*
X146696323Y-114487243D02*
X147254182Y-113929381D01*
X147254182Y-113929381D02*
X147254182Y-113914626D01*
X114239256Y-114487247D02*
X146696323Y-114487243D01*
%TO.N,/FR_4*%
X141800000Y-90355362D02*
X141800000Y-90469600D01*
X143053201Y-89102161D02*
X141800000Y-90355362D01*
X143053201Y-87731199D02*
X143053201Y-89102161D01*
X144125980Y-86658420D02*
X143053201Y-87731199D01*
X151733966Y-86658420D02*
X144125980Y-86658420D01*
X152568006Y-85824379D02*
X151733966Y-86658420D01*
X156507110Y-85824379D02*
X152568006Y-85824379D01*
X158120411Y-91510789D02*
X158120411Y-87437680D01*
X156260800Y-93370400D02*
X158120411Y-91510789D01*
X158120411Y-87437680D02*
X157845565Y-87162835D01*
X157845565Y-87162835D02*
X156507110Y-85824379D01*
%TO.N,/PWM_1*%
X147860591Y-114165809D02*
X151285590Y-110740810D01*
X146947508Y-115093651D02*
X147860591Y-114180563D01*
X111859611Y-94869211D02*
X111859611Y-112965197D01*
X111859611Y-112965197D02*
X112214840Y-113320424D01*
X151285590Y-105965610D02*
X153720800Y-103530400D01*
X151285590Y-110740810D02*
X151285590Y-105965610D01*
X110000000Y-93009600D02*
X111859611Y-94869211D01*
X113988074Y-115093656D02*
X146947508Y-115093651D01*
X147860591Y-114180563D02*
X147860591Y-114165809D01*
X112214840Y-113320424D02*
X113988074Y-115093656D01*
%TO.N,/FG_4*%
X143677590Y-86052010D02*
X141800000Y-87929600D01*
X158726821Y-93444379D02*
X158726821Y-87186497D01*
X151482783Y-86052010D02*
X143677590Y-86052010D01*
X156758293Y-85217969D02*
X152316823Y-85217969D01*
X156260800Y-95910400D02*
X158726821Y-93444379D01*
X158726821Y-87186497D02*
X156758293Y-85217969D01*
X152316823Y-85217969D02*
X151482783Y-86052010D01*
%TO.N,/RD_1*%
X151892000Y-107899200D02*
X153720800Y-106070400D01*
X151892000Y-111006749D02*
X151892000Y-107899200D01*
X147730775Y-115167974D02*
X151892000Y-111006749D01*
X111253201Y-96802801D02*
X111253201Y-113216377D01*
X111253201Y-113216377D02*
X113736892Y-115700065D01*
X147198693Y-115700059D02*
X147730775Y-115167974D01*
X110000000Y-95549600D02*
X111253201Y-96802801D01*
X113736892Y-115700065D02*
X147198693Y-115700059D01*
%TO.N,+3V3*%
X142066862Y-98089600D02*
X141800000Y-98089600D01*
X131200000Y-98089600D02*
X141800000Y-98089600D01*
D16*
X146831170Y-103120770D02*
X146831170Y-104120830D01*
X141800000Y-98089600D02*
X146831170Y-103120770D01*
X146831170Y-107238800D02*
X146831170Y-104120830D01*
D17*
%TO.N,VCC*%
X131200000Y-103169600D02*
X141800000Y-103169600D01*
D15*
%TO.N,/HALL_C_P_2*%
X120600000Y-82240000D02*
X123360000Y-82240000D01*
%TO.N,/HALL_C_N_2*%
X124613201Y-80953201D02*
X125900000Y-82240000D01*
X119346799Y-80953201D02*
X124613201Y-80953201D01*
X118060000Y-82240000D02*
X119346799Y-80953201D01*
%TO.N,/HALL_B_P_2*%
X120600000Y-79700000D02*
X123360000Y-79700000D01*
%TO.N,/COIL_B_2*%
X124646799Y-75906799D02*
X125900000Y-77160000D01*
X119313201Y-75906799D02*
X124646799Y-75906799D01*
X118060000Y-77160000D02*
X119313201Y-75906799D01*
%TO.N,/COIL_C_2*%
X124613201Y-73333201D02*
X125900000Y-74620000D01*
X119346799Y-73333201D02*
X124613201Y-73333201D01*
X118060000Y-74620000D02*
X119346799Y-73333201D01*
%TO.N,/HALL_B_N_2*%
X120600000Y-72080000D02*
X123360000Y-72080000D01*
%TO.N,/COIL_A_2*%
X124646799Y-70826799D02*
X125900000Y-72080000D01*
X119313201Y-70826799D02*
X124646799Y-70826799D01*
X118060000Y-72080000D02*
X119313201Y-70826799D01*
%TO.N,/HALL_A_N_2*%
X120600000Y-69540000D02*
X123360000Y-69540000D01*
%TO.N,/HALL_A_P_2*%
X124646799Y-68286799D02*
X125900000Y-69540000D01*
X119313201Y-68286799D02*
X124646799Y-68286799D01*
X118060000Y-69540000D02*
X119313201Y-68286799D01*
%TO.N,/HALL_C_P_3*%
X131200000Y-82240000D02*
X133960000Y-82240000D01*
%TO.N,/HALL_C_N_3*%
X135246799Y-80986799D02*
X136500000Y-82240000D01*
X129913201Y-80986799D02*
X135246799Y-80986799D01*
X128660000Y-82240000D02*
X129913201Y-80986799D01*
%TO.N,/HALL_B_P_3*%
X131200000Y-79700000D02*
X133960000Y-79700000D01*
%TO.N,/COIL_B_3*%
X129913201Y-75906799D02*
X135246799Y-75906799D01*
X135246799Y-75906799D02*
X136500000Y-77160000D01*
X128660000Y-77160000D02*
X129913201Y-75906799D01*
%TO.N,/COIL_C_3*%
X135246799Y-73366799D02*
X136500000Y-74620000D01*
X129913201Y-73366799D02*
X135246799Y-73366799D01*
X128660000Y-74620000D02*
X129913201Y-73366799D01*
%TO.N,/HALL_B_N_3*%
X131200000Y-72080000D02*
X133960000Y-72080000D01*
%TO.N,/COIL_A_3*%
X135246799Y-70826799D02*
X136500000Y-72080000D01*
X129913201Y-70826799D02*
X135246799Y-70826799D01*
X128660000Y-72080000D02*
X129913201Y-70826799D01*
%TO.N,/HALL_A_N_3*%
X131200000Y-69540000D02*
X133960000Y-69540000D01*
%TO.N,/HALL_A_P_3*%
X129913201Y-68286799D02*
X135246799Y-68286799D01*
X135246799Y-68286799D02*
X136500000Y-69540000D01*
X128660000Y-69540000D02*
X129913201Y-68286799D01*
%TO.N,/HALL_C_P_4*%
X141800000Y-82240000D02*
X144560000Y-82240000D01*
%TO.N,/HALL_C_N_4*%
X140513201Y-80986799D02*
X145846799Y-80986799D01*
X145846799Y-80986799D02*
X147100000Y-82240000D01*
X139260000Y-82240000D02*
X140513201Y-80986799D01*
%TO.N,/HALL_B_P_4*%
X141800000Y-79700000D02*
X144560000Y-79700000D01*
%TO.N,/COIL_B_4*%
X145846799Y-75906799D02*
X147100000Y-77160000D01*
X140513201Y-75906799D02*
X145846799Y-75906799D01*
X139260000Y-77160000D02*
X140513201Y-75906799D01*
%TO.N,/COIL_C_4*%
X145813201Y-73333201D02*
X147100000Y-74620000D01*
X140546799Y-73333201D02*
X145813201Y-73333201D01*
X139260000Y-74620000D02*
X140546799Y-73333201D01*
%TO.N,/HALL_B_N_4*%
X141800000Y-72080000D02*
X144560000Y-72080000D01*
%TO.N,/COIL_A_4*%
X145846799Y-70826799D02*
X147100000Y-72080000D01*
X140513201Y-70826799D02*
X145846799Y-70826799D01*
X139260000Y-72080000D02*
X140513201Y-70826799D01*
%TO.N,/HALL_A_N_4*%
X141800000Y-69540000D02*
X144560000Y-69540000D01*
%TO.N,/HALL_A_P_4*%
X145846799Y-68286799D02*
X147100000Y-69540000D01*
X140513201Y-68286799D02*
X145846799Y-68286799D01*
X139260000Y-69540000D02*
X140513201Y-68286799D01*
%TD*%
M02*
