%TF.GenerationSoftware,KiCad,Pcbnew,(5.1.6)-1*%
%TF.CreationDate,2020-10-29T16:21:17+09:00*%
%TF.ProjectId,BLDC__MD_Mounter,424c4443-5f5f-44d4-945f-4d6f756e7465,rev?*%
%TF.SameCoordinates,Original*%
%TF.FileFunction,Soldermask,Top*%
%TF.FilePolarity,Negative*%
%FSLAX46Y46*%
G04 Gerber Fmt 4.6, Leading zero omitted, Abs format (unit mm)*
G04 Created by KiCad (PCBNEW (5.1.6)-1) date 2020-10-29 16:21:17*
%MOMM*%
%LPD*%
G01*
G04 APERTURE LIST*
%ADD10C,0.300000*%
%ADD11O,1.800000X1.800000*%
%ADD12R,1.800000X1.800000*%
%ADD13C,3.300000*%
%ADD14C,2.800000*%
G04 APERTURE END LIST*
D10*
X142000000Y-62678571D02*
X142928571Y-62678571D01*
X142428571Y-63250000D01*
X142642857Y-63250000D01*
X142785714Y-63321428D01*
X142857142Y-63392857D01*
X142928571Y-63535714D01*
X142928571Y-63892857D01*
X142857142Y-64035714D01*
X142785714Y-64107142D01*
X142642857Y-64178571D01*
X142214285Y-64178571D01*
X142071428Y-64107142D01*
X142000000Y-64035714D01*
X131571428Y-62821428D02*
X131642857Y-62750000D01*
X131785714Y-62678571D01*
X132142857Y-62678571D01*
X132285714Y-62750000D01*
X132357142Y-62821428D01*
X132428571Y-62964285D01*
X132428571Y-63107142D01*
X132357142Y-63321428D01*
X131500000Y-64178571D01*
X132428571Y-64178571D01*
X121678571Y-64178571D02*
X120821428Y-64178571D01*
X121250000Y-64178571D02*
X121250000Y-62678571D01*
X121107142Y-62892857D01*
X120964285Y-63035714D01*
X120821428Y-63107142D01*
X110678571Y-62678571D02*
X110821428Y-62678571D01*
X110964285Y-62750000D01*
X111035714Y-62821428D01*
X111107142Y-62964285D01*
X111178571Y-63250000D01*
X111178571Y-63607142D01*
X111107142Y-63892857D01*
X111035714Y-64035714D01*
X110964285Y-64107142D01*
X110821428Y-64178571D01*
X110678571Y-64178571D01*
X110535714Y-64107142D01*
X110464285Y-64035714D01*
X110392857Y-63892857D01*
X110321428Y-63607142D01*
X110321428Y-63250000D01*
X110392857Y-62964285D01*
X110464285Y-62821428D01*
X110535714Y-62750000D01*
X110678571Y-62678571D01*
D11*
%TO.C,J3*%
X153720800Y-111150400D03*
X156260800Y-111150400D03*
X153720800Y-108610400D03*
X156260800Y-108610400D03*
X153720800Y-106070400D03*
X156260800Y-106070400D03*
X153720800Y-103530400D03*
X156260800Y-103530400D03*
X153720800Y-100990400D03*
X156260800Y-100990400D03*
X153720800Y-98450400D03*
X156260800Y-98450400D03*
X153720800Y-95910400D03*
X156260800Y-95910400D03*
X153720800Y-93370400D03*
X156260800Y-93370400D03*
X153720800Y-90830400D03*
X156260800Y-90830400D03*
X153720800Y-88290400D03*
D12*
X156260800Y-88290400D03*
%TD*%
D11*
%TO.C,J8*%
X120600000Y-87929600D03*
X120600000Y-90469600D03*
X120600000Y-93009600D03*
X120600000Y-95549600D03*
X120600000Y-98089600D03*
X120600000Y-100629600D03*
X120600000Y-103169600D03*
D12*
X120600000Y-105709600D03*
%TD*%
D13*
%TO.C,REF\u002A\u002A*%
X105000000Y-113000000D03*
%TD*%
D11*
%TO.C,J4*%
X110000000Y-87929600D03*
X110000000Y-90469600D03*
X110000000Y-93009600D03*
X110000000Y-95549600D03*
X110000000Y-98089600D03*
X110000000Y-100629600D03*
X110000000Y-103169600D03*
D12*
X110000000Y-105709600D03*
%TD*%
D11*
%TO.C,J11*%
X131200000Y-87929600D03*
X131200000Y-90469600D03*
X131200000Y-93009600D03*
X131200000Y-95549600D03*
X131200000Y-98089600D03*
X131200000Y-100629600D03*
X131200000Y-103169600D03*
D12*
X131200000Y-105709600D03*
%TD*%
D13*
%TO.C,REF\u002A\u002A*%
X161000000Y-113000000D03*
%TD*%
%TO.C,REF\u002A\u002A*%
X161000000Y-61000000D03*
%TD*%
%TO.C,REF\u002A\u002A*%
X105000000Y-61000000D03*
%TD*%
D11*
%TO.C,J14*%
X141800000Y-87929600D03*
X141800000Y-90469600D03*
X141800000Y-93009600D03*
X141800000Y-95549600D03*
X141800000Y-98089600D03*
X141800000Y-100629600D03*
X141800000Y-103169600D03*
D12*
X141800000Y-105709600D03*
%TD*%
D11*
%TO.C,J13*%
X139260000Y-82240000D03*
X141800000Y-82240000D03*
X139260000Y-79700000D03*
X141800000Y-79700000D03*
X139260000Y-77160000D03*
X141800000Y-77160000D03*
X139260000Y-74620000D03*
X141800000Y-74620000D03*
X139260000Y-72080000D03*
X141800000Y-72080000D03*
X139260000Y-69540000D03*
X141800000Y-69540000D03*
X139260000Y-67000000D03*
D12*
X141800000Y-67000000D03*
%TD*%
D11*
%TO.C,J12*%
X144560000Y-82240000D03*
X147100000Y-82240000D03*
X144560000Y-79700000D03*
X147100000Y-79700000D03*
X144560000Y-77160000D03*
X147100000Y-77160000D03*
X144560000Y-74620000D03*
X147100000Y-74620000D03*
X144560000Y-72080000D03*
X147100000Y-72080000D03*
X144560000Y-69540000D03*
X147100000Y-69540000D03*
X144560000Y-67000000D03*
D12*
X147100000Y-67000000D03*
%TD*%
D11*
%TO.C,J10*%
X128660000Y-82240000D03*
X131200000Y-82240000D03*
X128660000Y-79700000D03*
X131200000Y-79700000D03*
X128660000Y-77160000D03*
X131200000Y-77160000D03*
X128660000Y-74620000D03*
X131200000Y-74620000D03*
X128660000Y-72080000D03*
X131200000Y-72080000D03*
X128660000Y-69540000D03*
X131200000Y-69540000D03*
X128660000Y-67000000D03*
D12*
X131200000Y-67000000D03*
%TD*%
D11*
%TO.C,J9*%
X133960000Y-82240000D03*
X136500000Y-82240000D03*
X133960000Y-79700000D03*
X136500000Y-79700000D03*
X133960000Y-77160000D03*
X136500000Y-77160000D03*
X133960000Y-74620000D03*
X136500000Y-74620000D03*
X133960000Y-72080000D03*
X136500000Y-72080000D03*
X133960000Y-69540000D03*
X136500000Y-69540000D03*
X133960000Y-67000000D03*
D12*
X136500000Y-67000000D03*
%TD*%
D11*
%TO.C,J7*%
X118060000Y-82240000D03*
X120600000Y-82240000D03*
X118060000Y-79700000D03*
X120600000Y-79700000D03*
X118060000Y-77160000D03*
X120600000Y-77160000D03*
X118060000Y-74620000D03*
X120600000Y-74620000D03*
X118060000Y-72080000D03*
X120600000Y-72080000D03*
X118060000Y-69540000D03*
X120600000Y-69540000D03*
X118060000Y-67000000D03*
D12*
X120600000Y-67000000D03*
%TD*%
D11*
%TO.C,J6*%
X123360000Y-82240000D03*
X125900000Y-82240000D03*
X123360000Y-79700000D03*
X125900000Y-79700000D03*
X123360000Y-77160000D03*
X125900000Y-77160000D03*
X123360000Y-74620000D03*
X125900000Y-74620000D03*
X123360000Y-72080000D03*
X125900000Y-72080000D03*
X123360000Y-69540000D03*
X125900000Y-69540000D03*
X123360000Y-67000000D03*
D12*
X125900000Y-67000000D03*
%TD*%
D14*
%TO.C,J5*%
X154485200Y-73863200D03*
G36*
G01*
X159845200Y-72722460D02*
X159845200Y-75003940D01*
G75*
G02*
X159585940Y-75263200I-259260J0D01*
G01*
X157304460Y-75263200D01*
G75*
G02*
X157045200Y-75003940I0J259260D01*
G01*
X157045200Y-72722460D01*
G75*
G02*
X157304460Y-72463200I259260J0D01*
G01*
X159585940Y-72463200D01*
G75*
G02*
X159845200Y-72722460I0J-259260D01*
G01*
G37*
%TD*%
D11*
%TO.C,J2*%
X112760000Y-82240000D03*
X115300000Y-82240000D03*
X112760000Y-79700000D03*
X115300000Y-79700000D03*
X112760000Y-77160000D03*
X115300000Y-77160000D03*
X112760000Y-74620000D03*
X115300000Y-74620000D03*
X112760000Y-72080000D03*
X115300000Y-72080000D03*
X112760000Y-69540000D03*
X115300000Y-69540000D03*
X112760000Y-67000000D03*
D12*
X115300000Y-67000000D03*
%TD*%
D11*
%TO.C,J1*%
X107460000Y-82240000D03*
X110000000Y-82240000D03*
X107460000Y-79700000D03*
X110000000Y-79700000D03*
X107460000Y-77160000D03*
X110000000Y-77160000D03*
X107460000Y-74620000D03*
X110000000Y-74620000D03*
X107460000Y-72080000D03*
X110000000Y-72080000D03*
X107460000Y-69540000D03*
X110000000Y-69540000D03*
X107460000Y-67000000D03*
D12*
X110000000Y-67000000D03*
%TD*%
M02*
