%TF.GenerationSoftware,KiCad,Pcbnew,(5.1.6)-1*%
%TF.CreationDate,2020-08-10T13:34:50+09:00*%
%TF.ProjectId,BLDC__MD_Mounter,424c4443-5f5f-44d4-945f-4d6f756e7465,rev?*%
%TF.SameCoordinates,Original*%
%TF.FileFunction,Soldermask,Bot*%
%TF.FilePolarity,Negative*%
%FSLAX46Y46*%
G04 Gerber Fmt 4.6, Leading zero omitted, Abs format (unit mm)*
G04 Created by KiCad (PCBNEW (5.1.6)-1) date 2020-08-10 13:34:50*
%MOMM*%
%LPD*%
G01*
G04 APERTURE LIST*
%ADD10C,0.300000*%
%ADD11C,3.300000*%
%ADD12O,1.800000X1.800000*%
%ADD13R,1.800000X1.800000*%
%ADD14C,2.800000*%
G04 APERTURE END LIST*
D10*
X156535714Y-115357142D02*
X156321428Y-115428571D01*
X155964285Y-115428571D01*
X155821428Y-115357142D01*
X155750000Y-115285714D01*
X155678571Y-115142857D01*
X155678571Y-115000000D01*
X155750000Y-114857142D01*
X155821428Y-114785714D01*
X155964285Y-114714285D01*
X156250000Y-114642857D01*
X156392857Y-114571428D01*
X156464285Y-114500000D01*
X156535714Y-114357142D01*
X156535714Y-114214285D01*
X156464285Y-114071428D01*
X156392857Y-114000000D01*
X156250000Y-113928571D01*
X155892857Y-113928571D01*
X155678571Y-114000000D01*
X155035714Y-115428571D02*
X155035714Y-113928571D01*
X153535714Y-114000000D02*
X153678571Y-113928571D01*
X153892857Y-113928571D01*
X154107142Y-114000000D01*
X154250000Y-114142857D01*
X154321428Y-114285714D01*
X154392857Y-114571428D01*
X154392857Y-114785714D01*
X154321428Y-115071428D01*
X154250000Y-115214285D01*
X154107142Y-115357142D01*
X153892857Y-115428571D01*
X153750000Y-115428571D01*
X153535714Y-115357142D01*
X153464285Y-115285714D01*
X153464285Y-114785714D01*
X153750000Y-114785714D01*
X159071428Y-76607142D02*
X157928571Y-76607142D01*
X158500000Y-77178571D02*
X158500000Y-76035714D01*
X159464285Y-80928571D02*
X159464285Y-79428571D01*
X158892857Y-79428571D01*
X158750000Y-79500000D01*
X158678571Y-79571428D01*
X158607142Y-79714285D01*
X158607142Y-79928571D01*
X158678571Y-80071428D01*
X158750000Y-80142857D01*
X158892857Y-80214285D01*
X159464285Y-80214285D01*
X157750000Y-80928571D02*
X157892857Y-80857142D01*
X157964285Y-80785714D01*
X158035714Y-80642857D01*
X158035714Y-80214285D01*
X157964285Y-80071428D01*
X157892857Y-80000000D01*
X157750000Y-79928571D01*
X157535714Y-79928571D01*
X157392857Y-80000000D01*
X157321428Y-80071428D01*
X157250000Y-80214285D01*
X157250000Y-80642857D01*
X157321428Y-80785714D01*
X157392857Y-80857142D01*
X157535714Y-80928571D01*
X157750000Y-80928571D01*
X156750000Y-79928571D02*
X156464285Y-80928571D01*
X156178571Y-80214285D01*
X155892857Y-80928571D01*
X155607142Y-79928571D01*
X154464285Y-80857142D02*
X154607142Y-80928571D01*
X154892857Y-80928571D01*
X155035714Y-80857142D01*
X155107142Y-80714285D01*
X155107142Y-80142857D01*
X155035714Y-80000000D01*
X154892857Y-79928571D01*
X154607142Y-79928571D01*
X154464285Y-80000000D01*
X154392857Y-80142857D01*
X154392857Y-80285714D01*
X155107142Y-80428571D01*
X153750000Y-80928571D02*
X153750000Y-79928571D01*
X153750000Y-80214285D02*
X153678571Y-80071428D01*
X153607142Y-80000000D01*
X153464285Y-79928571D01*
X153321428Y-79928571D01*
X145250000Y-65178571D02*
X145250000Y-63678571D01*
X144892857Y-63678571D01*
X144678571Y-63750000D01*
X144535714Y-63892857D01*
X144464285Y-64035714D01*
X144392857Y-64321428D01*
X144392857Y-64535714D01*
X144464285Y-64821428D01*
X144535714Y-64964285D01*
X144678571Y-65107142D01*
X144892857Y-65178571D01*
X145250000Y-65178571D01*
X143178571Y-65107142D02*
X143321428Y-65178571D01*
X143607142Y-65178571D01*
X143750000Y-65107142D01*
X143821428Y-64964285D01*
X143821428Y-64392857D01*
X143750000Y-64250000D01*
X143607142Y-64178571D01*
X143321428Y-64178571D01*
X143178571Y-64250000D01*
X143107142Y-64392857D01*
X143107142Y-64535714D01*
X143821428Y-64678571D01*
X142535714Y-65107142D02*
X142392857Y-65178571D01*
X142107142Y-65178571D01*
X141964285Y-65107142D01*
X141892857Y-64964285D01*
X141892857Y-64892857D01*
X141964285Y-64750000D01*
X142107142Y-64678571D01*
X142321428Y-64678571D01*
X142464285Y-64607142D01*
X142535714Y-64464285D01*
X142535714Y-64392857D01*
X142464285Y-64250000D01*
X142321428Y-64178571D01*
X142107142Y-64178571D01*
X141964285Y-64250000D01*
X141250000Y-65178571D02*
X141250000Y-64178571D01*
X141250000Y-63678571D02*
X141321428Y-63750000D01*
X141250000Y-63821428D01*
X141178571Y-63750000D01*
X141250000Y-63678571D01*
X141250000Y-63821428D01*
X139892857Y-64178571D02*
X139892857Y-65392857D01*
X139964285Y-65535714D01*
X140035714Y-65607142D01*
X140178571Y-65678571D01*
X140392857Y-65678571D01*
X140535714Y-65607142D01*
X139892857Y-65107142D02*
X140035714Y-65178571D01*
X140321428Y-65178571D01*
X140464285Y-65107142D01*
X140535714Y-65035714D01*
X140607142Y-64892857D01*
X140607142Y-64464285D01*
X140535714Y-64321428D01*
X140464285Y-64250000D01*
X140321428Y-64178571D01*
X140035714Y-64178571D01*
X139892857Y-64250000D01*
X139178571Y-64178571D02*
X139178571Y-65178571D01*
X139178571Y-64321428D02*
X139107142Y-64250000D01*
X138964285Y-64178571D01*
X138750000Y-64178571D01*
X138607142Y-64250000D01*
X138535714Y-64392857D01*
X138535714Y-65178571D01*
X137250000Y-65107142D02*
X137392857Y-65178571D01*
X137678571Y-65178571D01*
X137821428Y-65107142D01*
X137892857Y-64964285D01*
X137892857Y-64392857D01*
X137821428Y-64250000D01*
X137678571Y-64178571D01*
X137392857Y-64178571D01*
X137250000Y-64250000D01*
X137178571Y-64392857D01*
X137178571Y-64535714D01*
X137892857Y-64678571D01*
X135892857Y-65178571D02*
X135892857Y-63678571D01*
X135892857Y-65107142D02*
X136035714Y-65178571D01*
X136321428Y-65178571D01*
X136464285Y-65107142D01*
X136535714Y-65035714D01*
X136607142Y-64892857D01*
X136607142Y-64464285D01*
X136535714Y-64321428D01*
X136464285Y-64250000D01*
X136321428Y-64178571D01*
X136035714Y-64178571D01*
X135892857Y-64250000D01*
X133535714Y-64392857D02*
X133321428Y-64464285D01*
X133250000Y-64535714D01*
X133178571Y-64678571D01*
X133178571Y-64892857D01*
X133250000Y-65035714D01*
X133321428Y-65107142D01*
X133464285Y-65178571D01*
X134035714Y-65178571D01*
X134035714Y-63678571D01*
X133535714Y-63678571D01*
X133392857Y-63750000D01*
X133321428Y-63821428D01*
X133250000Y-63964285D01*
X133250000Y-64107142D01*
X133321428Y-64250000D01*
X133392857Y-64321428D01*
X133535714Y-64392857D01*
X134035714Y-64392857D01*
X132678571Y-64178571D02*
X132321428Y-65178571D01*
X131964285Y-64178571D02*
X132321428Y-65178571D01*
X132464285Y-65535714D01*
X132535714Y-65607142D01*
X132678571Y-65678571D01*
X130321428Y-65107142D02*
X130107142Y-65178571D01*
X129750000Y-65178571D01*
X129607142Y-65107142D01*
X129535714Y-65035714D01*
X129464285Y-64892857D01*
X129464285Y-64750000D01*
X129535714Y-64607142D01*
X129607142Y-64535714D01*
X129750000Y-64464285D01*
X130035714Y-64392857D01*
X130178571Y-64321428D01*
X130250000Y-64250000D01*
X130321428Y-64107142D01*
X130321428Y-63964285D01*
X130250000Y-63821428D01*
X130178571Y-63750000D01*
X130035714Y-63678571D01*
X129678571Y-63678571D01*
X129464285Y-63750000D01*
X128607142Y-65178571D02*
X128750000Y-65107142D01*
X128821428Y-65035714D01*
X128892857Y-64892857D01*
X128892857Y-64464285D01*
X128821428Y-64321428D01*
X128750000Y-64250000D01*
X128607142Y-64178571D01*
X128392857Y-64178571D01*
X128250000Y-64250000D01*
X128178571Y-64321428D01*
X128107142Y-64464285D01*
X128107142Y-64892857D01*
X128178571Y-65035714D01*
X128250000Y-65107142D01*
X128392857Y-65178571D01*
X128607142Y-65178571D01*
X126821428Y-64178571D02*
X126821428Y-65178571D01*
X127464285Y-64178571D02*
X127464285Y-64964285D01*
X127392857Y-65107142D01*
X127250000Y-65178571D01*
X127035714Y-65178571D01*
X126892857Y-65107142D01*
X126821428Y-65035714D01*
X125892857Y-65178571D02*
X126035714Y-65107142D01*
X126107142Y-64964285D01*
X126107142Y-63678571D01*
X124678571Y-65178571D02*
X124678571Y-64392857D01*
X124750000Y-64250000D01*
X124892857Y-64178571D01*
X125178571Y-64178571D01*
X125321428Y-64250000D01*
X124678571Y-65107142D02*
X124821428Y-65178571D01*
X125178571Y-65178571D01*
X125321428Y-65107142D01*
X125392857Y-64964285D01*
X125392857Y-64821428D01*
X125321428Y-64678571D01*
X125178571Y-64607142D01*
X124821428Y-64607142D01*
X124678571Y-64535714D01*
X124035714Y-65107142D02*
X123821428Y-65178571D01*
X123464285Y-65178571D01*
X123321428Y-65107142D01*
X123250000Y-65035714D01*
X123178571Y-64892857D01*
X123178571Y-64750000D01*
X123250000Y-64607142D01*
X123321428Y-64535714D01*
X123464285Y-64464285D01*
X123750000Y-64392857D01*
X123892857Y-64321428D01*
X123964285Y-64250000D01*
X124035714Y-64107142D01*
X124035714Y-63964285D01*
X123964285Y-63821428D01*
X123892857Y-63750000D01*
X123750000Y-63678571D01*
X123392857Y-63678571D01*
X123178571Y-63750000D01*
X144678571Y-61392857D02*
X144464285Y-61464285D01*
X144392857Y-61535714D01*
X144321428Y-61678571D01*
X144321428Y-61892857D01*
X144392857Y-62035714D01*
X144464285Y-62107142D01*
X144607142Y-62178571D01*
X145178571Y-62178571D01*
X145178571Y-60678571D01*
X144678571Y-60678571D01*
X144535714Y-60750000D01*
X144464285Y-60821428D01*
X144392857Y-60964285D01*
X144392857Y-61107142D01*
X144464285Y-61250000D01*
X144535714Y-61321428D01*
X144678571Y-61392857D01*
X145178571Y-61392857D01*
X142964285Y-62178571D02*
X143678571Y-62178571D01*
X143678571Y-60678571D01*
X142464285Y-62178571D02*
X142464285Y-60678571D01*
X142107142Y-60678571D01*
X141892857Y-60750000D01*
X141750000Y-60892857D01*
X141678571Y-61035714D01*
X141607142Y-61321428D01*
X141607142Y-61535714D01*
X141678571Y-61821428D01*
X141750000Y-61964285D01*
X141892857Y-62107142D01*
X142107142Y-62178571D01*
X142464285Y-62178571D01*
X140107142Y-62035714D02*
X140178571Y-62107142D01*
X140392857Y-62178571D01*
X140535714Y-62178571D01*
X140750000Y-62107142D01*
X140892857Y-61964285D01*
X140964285Y-61821428D01*
X141035714Y-61535714D01*
X141035714Y-61321428D01*
X140964285Y-61035714D01*
X140892857Y-60892857D01*
X140750000Y-60750000D01*
X140535714Y-60678571D01*
X140392857Y-60678571D01*
X140178571Y-60750000D01*
X140107142Y-60821428D01*
X138321428Y-62178571D02*
X138321428Y-60678571D01*
X137821428Y-61750000D01*
X137321428Y-60678571D01*
X137321428Y-62178571D01*
X136392857Y-62178571D02*
X136535714Y-62107142D01*
X136607142Y-62035714D01*
X136678571Y-61892857D01*
X136678571Y-61464285D01*
X136607142Y-61321428D01*
X136535714Y-61250000D01*
X136392857Y-61178571D01*
X136178571Y-61178571D01*
X136035714Y-61250000D01*
X135964285Y-61321428D01*
X135892857Y-61464285D01*
X135892857Y-61892857D01*
X135964285Y-62035714D01*
X136035714Y-62107142D01*
X136178571Y-62178571D01*
X136392857Y-62178571D01*
X135464285Y-61178571D02*
X134892857Y-61178571D01*
X135250000Y-60678571D02*
X135250000Y-61964285D01*
X135178571Y-62107142D01*
X135035714Y-62178571D01*
X134892857Y-62178571D01*
X134178571Y-62178571D02*
X134321428Y-62107142D01*
X134392857Y-62035714D01*
X134464285Y-61892857D01*
X134464285Y-61464285D01*
X134392857Y-61321428D01*
X134321428Y-61250000D01*
X134178571Y-61178571D01*
X133964285Y-61178571D01*
X133821428Y-61250000D01*
X133750000Y-61321428D01*
X133678571Y-61464285D01*
X133678571Y-61892857D01*
X133750000Y-62035714D01*
X133821428Y-62107142D01*
X133964285Y-62178571D01*
X134178571Y-62178571D01*
X133035714Y-62178571D02*
X133035714Y-61178571D01*
X133035714Y-61464285D02*
X132964285Y-61321428D01*
X132892857Y-61250000D01*
X132750000Y-61178571D01*
X132607142Y-61178571D01*
X130964285Y-62178571D02*
X130964285Y-60678571D01*
X130607142Y-60678571D01*
X130392857Y-60750000D01*
X130250000Y-60892857D01*
X130178571Y-61035714D01*
X130107142Y-61321428D01*
X130107142Y-61535714D01*
X130178571Y-61821428D01*
X130250000Y-61964285D01*
X130392857Y-62107142D01*
X130607142Y-62178571D01*
X130964285Y-62178571D01*
X129464285Y-62178571D02*
X129464285Y-61178571D01*
X129464285Y-61464285D02*
X129392857Y-61321428D01*
X129321428Y-61250000D01*
X129178571Y-61178571D01*
X129035714Y-61178571D01*
X128535714Y-62178571D02*
X128535714Y-61178571D01*
X128535714Y-60678571D02*
X128607142Y-60750000D01*
X128535714Y-60821428D01*
X128464285Y-60750000D01*
X128535714Y-60678571D01*
X128535714Y-60821428D01*
X127964285Y-61178571D02*
X127607142Y-62178571D01*
X127250000Y-61178571D01*
X126107142Y-62107142D02*
X126250000Y-62178571D01*
X126535714Y-62178571D01*
X126678571Y-62107142D01*
X126750000Y-61964285D01*
X126750000Y-61392857D01*
X126678571Y-61250000D01*
X126535714Y-61178571D01*
X126250000Y-61178571D01*
X126107142Y-61250000D01*
X126035714Y-61392857D01*
X126035714Y-61535714D01*
X126750000Y-61678571D01*
X125392857Y-62178571D02*
X125392857Y-61178571D01*
X125392857Y-61464285D02*
X125321428Y-61321428D01*
X125250000Y-61250000D01*
X125107142Y-61178571D01*
X124964285Y-61178571D01*
X123321428Y-62178571D02*
X123321428Y-60678571D01*
X122821428Y-61750000D01*
X122321428Y-60678571D01*
X122321428Y-62178571D01*
X121392857Y-62178571D02*
X121535714Y-62107142D01*
X121607142Y-62035714D01*
X121678571Y-61892857D01*
X121678571Y-61464285D01*
X121607142Y-61321428D01*
X121535714Y-61250000D01*
X121392857Y-61178571D01*
X121178571Y-61178571D01*
X121035714Y-61250000D01*
X120964285Y-61321428D01*
X120892857Y-61464285D01*
X120892857Y-61892857D01*
X120964285Y-62035714D01*
X121035714Y-62107142D01*
X121178571Y-62178571D01*
X121392857Y-62178571D01*
X119607142Y-61178571D02*
X119607142Y-62178571D01*
X120250000Y-61178571D02*
X120250000Y-61964285D01*
X120178571Y-62107142D01*
X120035714Y-62178571D01*
X119821428Y-62178571D01*
X119678571Y-62107142D01*
X119607142Y-62035714D01*
X118892857Y-61178571D02*
X118892857Y-62178571D01*
X118892857Y-61321428D02*
X118821428Y-61250000D01*
X118678571Y-61178571D01*
X118464285Y-61178571D01*
X118321428Y-61250000D01*
X118250000Y-61392857D01*
X118250000Y-62178571D01*
X117750000Y-61178571D02*
X117178571Y-61178571D01*
X117535714Y-60678571D02*
X117535714Y-61964285D01*
X117464285Y-62107142D01*
X117321428Y-62178571D01*
X117178571Y-62178571D01*
X116107142Y-62107142D02*
X116250000Y-62178571D01*
X116535714Y-62178571D01*
X116678571Y-62107142D01*
X116750000Y-61964285D01*
X116750000Y-61392857D01*
X116678571Y-61250000D01*
X116535714Y-61178571D01*
X116250000Y-61178571D01*
X116107142Y-61250000D01*
X116035714Y-61392857D01*
X116035714Y-61535714D01*
X116750000Y-61678571D01*
X115392857Y-62178571D02*
X115392857Y-61178571D01*
X115392857Y-61464285D02*
X115321428Y-61321428D01*
X115250000Y-61250000D01*
X115107142Y-61178571D01*
X114964285Y-61178571D01*
X113464285Y-61178571D02*
X113107142Y-62178571D01*
X112750000Y-61178571D01*
X111392857Y-62178571D02*
X112250000Y-62178571D01*
X111821428Y-62178571D02*
X111821428Y-60678571D01*
X111964285Y-60892857D01*
X112107142Y-61035714D01*
X112250000Y-61107142D01*
X110750000Y-62035714D02*
X110678571Y-62107142D01*
X110750000Y-62178571D01*
X110821428Y-62107142D01*
X110750000Y-62035714D01*
X110750000Y-62178571D01*
X109750000Y-60678571D02*
X109607142Y-60678571D01*
X109464285Y-60750000D01*
X109392857Y-60821428D01*
X109321428Y-60964285D01*
X109250000Y-61250000D01*
X109250000Y-61607142D01*
X109321428Y-61892857D01*
X109392857Y-62035714D01*
X109464285Y-62107142D01*
X109607142Y-62178571D01*
X109750000Y-62178571D01*
X109892857Y-62107142D01*
X109964285Y-62035714D01*
X110035714Y-61892857D01*
X110107142Y-61607142D01*
X110107142Y-61250000D01*
X110035714Y-60964285D01*
X109964285Y-60821428D01*
X109892857Y-60750000D01*
X109750000Y-60678571D01*
X145214285Y-59428571D02*
X145214285Y-57928571D01*
X144642857Y-57928571D01*
X144500000Y-58000000D01*
X144428571Y-58071428D01*
X144357142Y-58214285D01*
X144357142Y-58428571D01*
X144428571Y-58571428D01*
X144500000Y-58642857D01*
X144642857Y-58714285D01*
X145214285Y-58714285D01*
X143714285Y-59428571D02*
X143714285Y-58428571D01*
X143714285Y-58714285D02*
X143642857Y-58571428D01*
X143571428Y-58500000D01*
X143428571Y-58428571D01*
X143285714Y-58428571D01*
X142571428Y-59428571D02*
X142714285Y-59357142D01*
X142785714Y-59285714D01*
X142857142Y-59142857D01*
X142857142Y-58714285D01*
X142785714Y-58571428D01*
X142714285Y-58500000D01*
X142571428Y-58428571D01*
X142357142Y-58428571D01*
X142214285Y-58500000D01*
X142142857Y-58571428D01*
X142071428Y-58714285D01*
X142071428Y-59142857D01*
X142142857Y-59285714D01*
X142214285Y-59357142D01*
X142357142Y-59428571D01*
X142571428Y-59428571D01*
X141428571Y-58428571D02*
X141428571Y-59714285D01*
X141500000Y-59857142D01*
X141642857Y-59928571D01*
X141714285Y-59928571D01*
X141428571Y-57928571D02*
X141500000Y-58000000D01*
X141428571Y-58071428D01*
X141357142Y-58000000D01*
X141428571Y-57928571D01*
X141428571Y-58071428D01*
X140142857Y-59357142D02*
X140285714Y-59428571D01*
X140571428Y-59428571D01*
X140714285Y-59357142D01*
X140785714Y-59214285D01*
X140785714Y-58642857D01*
X140714285Y-58500000D01*
X140571428Y-58428571D01*
X140285714Y-58428571D01*
X140142857Y-58500000D01*
X140071428Y-58642857D01*
X140071428Y-58785714D01*
X140785714Y-58928571D01*
X138785714Y-59357142D02*
X138928571Y-59428571D01*
X139214285Y-59428571D01*
X139357142Y-59357142D01*
X139428571Y-59285714D01*
X139500000Y-59142857D01*
X139500000Y-58714285D01*
X139428571Y-58571428D01*
X139357142Y-58500000D01*
X139214285Y-58428571D01*
X138928571Y-58428571D01*
X138785714Y-58500000D01*
X138357142Y-58428571D02*
X137785714Y-58428571D01*
X138142857Y-57928571D02*
X138142857Y-59214285D01*
X138071428Y-59357142D01*
X137928571Y-59428571D01*
X137785714Y-59428571D01*
X136142857Y-59428571D02*
X136142857Y-57928571D01*
X136142857Y-58642857D02*
X135285714Y-58642857D01*
X135285714Y-59428571D02*
X135285714Y-57928571D01*
X134642857Y-59000000D02*
X133928571Y-59000000D01*
X134785714Y-59428571D02*
X134285714Y-57928571D01*
X133785714Y-59428571D01*
X132428571Y-59428571D02*
X132928571Y-58714285D01*
X133285714Y-59428571D02*
X133285714Y-57928571D01*
X132714285Y-57928571D01*
X132571428Y-58000000D01*
X132500000Y-58071428D01*
X132428571Y-58214285D01*
X132428571Y-58428571D01*
X132500000Y-58571428D01*
X132571428Y-58642857D01*
X132714285Y-58714285D01*
X133285714Y-58714285D01*
X131785714Y-59428571D02*
X131785714Y-57928571D01*
X131214285Y-57928571D01*
X131071428Y-58000000D01*
X131000000Y-58071428D01*
X130928571Y-58214285D01*
X130928571Y-58428571D01*
X131000000Y-58571428D01*
X131071428Y-58642857D01*
X131214285Y-58714285D01*
X131785714Y-58714285D01*
X130285714Y-59285714D02*
X130214285Y-59357142D01*
X130285714Y-59428571D01*
X130357142Y-59357142D01*
X130285714Y-59285714D01*
X130285714Y-59428571D01*
D11*
%TO.C,REF\u002A\u002A*%
X161000000Y-113000000D03*
%TD*%
%TO.C,REF\u002A\u002A*%
X161000000Y-61000000D03*
%TD*%
%TO.C,REF\u002A\u002A*%
X105000000Y-61000000D03*
%TD*%
%TO.C,REF\u002A\u002A*%
X105000000Y-113000000D03*
%TD*%
D12*
%TO.C,J4*%
X110000000Y-105709600D03*
X110000000Y-103169600D03*
X110000000Y-100629600D03*
X110000000Y-98089600D03*
X110000000Y-95549600D03*
X110000000Y-93009600D03*
X110000000Y-90469600D03*
D13*
X110000000Y-87929600D03*
%TD*%
D12*
%TO.C,J11*%
X131200000Y-105709600D03*
X131200000Y-103169600D03*
X131200000Y-100629600D03*
X131200000Y-98089600D03*
X131200000Y-95549600D03*
X131200000Y-93009600D03*
X131200000Y-90469600D03*
D13*
X131200000Y-87929600D03*
%TD*%
D12*
%TO.C,J14*%
X141800000Y-105709600D03*
X141800000Y-103169600D03*
X141800000Y-100629600D03*
X141800000Y-98089600D03*
X141800000Y-95549600D03*
X141800000Y-93009600D03*
X141800000Y-90469600D03*
D13*
X141800000Y-87929600D03*
%TD*%
D12*
%TO.C,J13*%
X139260000Y-82240000D03*
X141800000Y-82240000D03*
X139260000Y-79700000D03*
X141800000Y-79700000D03*
X139260000Y-77160000D03*
X141800000Y-77160000D03*
X139260000Y-74620000D03*
X141800000Y-74620000D03*
X139260000Y-72080000D03*
X141800000Y-72080000D03*
X139260000Y-69540000D03*
X141800000Y-69540000D03*
X139260000Y-67000000D03*
D13*
X141800000Y-67000000D03*
%TD*%
D12*
%TO.C,J12*%
X144560000Y-82240000D03*
X147100000Y-82240000D03*
X144560000Y-79700000D03*
X147100000Y-79700000D03*
X144560000Y-77160000D03*
X147100000Y-77160000D03*
X144560000Y-74620000D03*
X147100000Y-74620000D03*
X144560000Y-72080000D03*
X147100000Y-72080000D03*
X144560000Y-69540000D03*
X147100000Y-69540000D03*
X144560000Y-67000000D03*
D13*
X147100000Y-67000000D03*
%TD*%
D12*
%TO.C,J10*%
X128660000Y-82240000D03*
X131200000Y-82240000D03*
X128660000Y-79700000D03*
X131200000Y-79700000D03*
X128660000Y-77160000D03*
X131200000Y-77160000D03*
X128660000Y-74620000D03*
X131200000Y-74620000D03*
X128660000Y-72080000D03*
X131200000Y-72080000D03*
X128660000Y-69540000D03*
X131200000Y-69540000D03*
X128660000Y-67000000D03*
D13*
X131200000Y-67000000D03*
%TD*%
D12*
%TO.C,J9*%
X133960000Y-82240000D03*
X136500000Y-82240000D03*
X133960000Y-79700000D03*
X136500000Y-79700000D03*
X133960000Y-77160000D03*
X136500000Y-77160000D03*
X133960000Y-74620000D03*
X136500000Y-74620000D03*
X133960000Y-72080000D03*
X136500000Y-72080000D03*
X133960000Y-69540000D03*
X136500000Y-69540000D03*
X133960000Y-67000000D03*
D13*
X136500000Y-67000000D03*
%TD*%
D12*
%TO.C,J8*%
X120600000Y-105709600D03*
X120600000Y-103169600D03*
X120600000Y-100629600D03*
X120600000Y-98089600D03*
X120600000Y-95549600D03*
X120600000Y-93009600D03*
X120600000Y-90469600D03*
D13*
X120600000Y-87929600D03*
%TD*%
D12*
%TO.C,J7*%
X118060000Y-82240000D03*
X120600000Y-82240000D03*
X118060000Y-79700000D03*
X120600000Y-79700000D03*
X118060000Y-77160000D03*
X120600000Y-77160000D03*
X118060000Y-74620000D03*
X120600000Y-74620000D03*
X118060000Y-72080000D03*
X120600000Y-72080000D03*
X118060000Y-69540000D03*
X120600000Y-69540000D03*
X118060000Y-67000000D03*
D13*
X120600000Y-67000000D03*
%TD*%
D12*
%TO.C,J6*%
X123360000Y-82240000D03*
X125900000Y-82240000D03*
X123360000Y-79700000D03*
X125900000Y-79700000D03*
X123360000Y-77160000D03*
X125900000Y-77160000D03*
X123360000Y-74620000D03*
X125900000Y-74620000D03*
X123360000Y-72080000D03*
X125900000Y-72080000D03*
X123360000Y-69540000D03*
X125900000Y-69540000D03*
X123360000Y-67000000D03*
D13*
X125900000Y-67000000D03*
%TD*%
D14*
%TO.C,J5*%
X154485200Y-73863200D03*
G36*
G01*
X159845200Y-72722460D02*
X159845200Y-75003940D01*
G75*
G02*
X159585940Y-75263200I-259260J0D01*
G01*
X157304460Y-75263200D01*
G75*
G02*
X157045200Y-75003940I0J259260D01*
G01*
X157045200Y-72722460D01*
G75*
G02*
X157304460Y-72463200I259260J0D01*
G01*
X159585940Y-72463200D01*
G75*
G02*
X159845200Y-72722460I0J-259260D01*
G01*
G37*
%TD*%
D12*
%TO.C,J3*%
X156260800Y-88290400D03*
X153720800Y-88290400D03*
X156260800Y-90830400D03*
X153720800Y-90830400D03*
X156260800Y-93370400D03*
X153720800Y-93370400D03*
X156260800Y-95910400D03*
X153720800Y-95910400D03*
X156260800Y-98450400D03*
X153720800Y-98450400D03*
X156260800Y-100990400D03*
X153720800Y-100990400D03*
X156260800Y-103530400D03*
X153720800Y-103530400D03*
X156260800Y-106070400D03*
X153720800Y-106070400D03*
X156260800Y-108610400D03*
X153720800Y-108610400D03*
X156260800Y-111150400D03*
D13*
X153720800Y-111150400D03*
%TD*%
D12*
%TO.C,J2*%
X112760000Y-82240000D03*
X115300000Y-82240000D03*
X112760000Y-79700000D03*
X115300000Y-79700000D03*
X112760000Y-77160000D03*
X115300000Y-77160000D03*
X112760000Y-74620000D03*
X115300000Y-74620000D03*
X112760000Y-72080000D03*
X115300000Y-72080000D03*
X112760000Y-69540000D03*
X115300000Y-69540000D03*
X112760000Y-67000000D03*
D13*
X115300000Y-67000000D03*
%TD*%
D12*
%TO.C,J1*%
X107460000Y-82240000D03*
X110000000Y-82240000D03*
X107460000Y-79700000D03*
X110000000Y-79700000D03*
X107460000Y-77160000D03*
X110000000Y-77160000D03*
X107460000Y-74620000D03*
X110000000Y-74620000D03*
X107460000Y-72080000D03*
X110000000Y-72080000D03*
X107460000Y-69540000D03*
X110000000Y-69540000D03*
X107460000Y-67000000D03*
D13*
X110000000Y-67000000D03*
%TD*%
M02*
