%TF.GenerationSoftware,KiCad,Pcbnew,(5.1.6)-1*%
%TF.CreationDate,2020-10-29T16:21:17+09:00*%
%TF.ProjectId,BLDC__MD_Mounter,424c4443-5f5f-44d4-945f-4d6f756e7465,rev?*%
%TF.SameCoordinates,Original*%
%TF.FileFunction,Legend,Top*%
%TF.FilePolarity,Positive*%
%FSLAX46Y46*%
G04 Gerber Fmt 4.6, Leading zero omitted, Abs format (unit mm)*
G04 Created by KiCad (PCBNEW (5.1.6)-1) date 2020-10-29 16:21:17*
%MOMM*%
%LPD*%
G01*
G04 APERTURE LIST*
%ADD10C,0.120000*%
G04 APERTURE END LIST*
D10*
%TO.C,J8*%
X121930000Y-104439600D02*
X119270000Y-104439600D01*
X121930000Y-104439600D02*
X121930000Y-86599600D01*
X121930000Y-86599600D02*
X119270000Y-86599600D01*
X119270000Y-104439600D02*
X119270000Y-86599600D01*
X119270000Y-107039600D02*
X119270000Y-105709600D01*
X120600000Y-107039600D02*
X119270000Y-107039600D01*
%TO.C,J4*%
X111330000Y-104439600D02*
X108670000Y-104439600D01*
X111330000Y-104439600D02*
X111330000Y-86599600D01*
X111330000Y-86599600D02*
X108670000Y-86599600D01*
X108670000Y-104439600D02*
X108670000Y-86599600D01*
X108670000Y-107039600D02*
X108670000Y-105709600D01*
X110000000Y-107039600D02*
X108670000Y-107039600D01*
%TO.C,J11*%
X132530000Y-104439600D02*
X129870000Y-104439600D01*
X132530000Y-104439600D02*
X132530000Y-86599600D01*
X132530000Y-86599600D02*
X129870000Y-86599600D01*
X129870000Y-104439600D02*
X129870000Y-86599600D01*
X129870000Y-107039600D02*
X129870000Y-105709600D01*
X131200000Y-107039600D02*
X129870000Y-107039600D01*
%TO.C,J14*%
X143130000Y-104439600D02*
X140470000Y-104439600D01*
X143130000Y-104439600D02*
X143130000Y-86599600D01*
X143130000Y-86599600D02*
X140470000Y-86599600D01*
X140470000Y-104439600D02*
X140470000Y-86599600D01*
X140470000Y-107039600D02*
X140470000Y-105709600D01*
X141800000Y-107039600D02*
X140470000Y-107039600D01*
%TO.C,J13*%
X137930000Y-65670000D02*
X140530000Y-65670000D01*
X137930000Y-65670000D02*
X137930000Y-83570000D01*
X137930000Y-83570000D02*
X143130000Y-83570000D01*
X143130000Y-68270000D02*
X143130000Y-83570000D01*
X140530000Y-68270000D02*
X143130000Y-68270000D01*
X140530000Y-65670000D02*
X140530000Y-68270000D01*
X143130000Y-65670000D02*
X143130000Y-67000000D01*
X141800000Y-65670000D02*
X143130000Y-65670000D01*
%TO.C,J10*%
X127330000Y-65670000D02*
X129930000Y-65670000D01*
X127330000Y-65670000D02*
X127330000Y-83570000D01*
X127330000Y-83570000D02*
X132530000Y-83570000D01*
X132530000Y-68270000D02*
X132530000Y-83570000D01*
X129930000Y-68270000D02*
X132530000Y-68270000D01*
X129930000Y-65670000D02*
X129930000Y-68270000D01*
X132530000Y-65670000D02*
X132530000Y-67000000D01*
X131200000Y-65670000D02*
X132530000Y-65670000D01*
%TO.C,J7*%
X116730000Y-65670000D02*
X119330000Y-65670000D01*
X116730000Y-65670000D02*
X116730000Y-83570000D01*
X116730000Y-83570000D02*
X121930000Y-83570000D01*
X121930000Y-68270000D02*
X121930000Y-83570000D01*
X119330000Y-68270000D02*
X121930000Y-68270000D01*
X119330000Y-65670000D02*
X119330000Y-68270000D01*
X121930000Y-65670000D02*
X121930000Y-67000000D01*
X120600000Y-65670000D02*
X121930000Y-65670000D01*
%TO.C,J1*%
X106130000Y-65670000D02*
X108730000Y-65670000D01*
X106130000Y-65670000D02*
X106130000Y-83570000D01*
X106130000Y-83570000D02*
X111330000Y-83570000D01*
X111330000Y-68270000D02*
X111330000Y-83570000D01*
X108730000Y-68270000D02*
X111330000Y-68270000D01*
X108730000Y-65670000D02*
X108730000Y-68270000D01*
X111330000Y-65670000D02*
X111330000Y-67000000D01*
X110000000Y-65670000D02*
X111330000Y-65670000D01*
%TD*%
M02*
